<?xml version="1.0" encoding="UTF-8" standalone="no"?>
<!DOCTYPE svg PUBLIC "-//W3C//DTD SVG 20010904//EN"
              "http://www.w3.org/TR/2001/REC-SVG-20010904/DTD/svg10.dtd">

<svg xmlns="http://www.w3.org/2000/svg"
     width="3.56667in" height="2.07778in"
     viewBox="0 0 321 187">
  <path id="Selection"
        fill="none" stroke="black" stroke-width="1"
        d="M 262.00,112.00
           C 258.17,124.42 246.24,118.72 238.00,115.45
             238.00,115.45 229.00,112.34 229.00,112.34
             223.04,110.44 220.64,110.37 215.00,106.93
             210.86,104.42 204.86,99.40 200.00,99.29
             191.91,99.11 191.40,107.89 182.00,113.10
             175.07,116.93 162.91,118.99 155.00,119.00
             151.08,119.01 144.47,118.46 141.28,120.85
             137.69,123.54 137.92,128.97 138.01,133.00
             138.20,141.04 140.80,144.77 142.33,152.00
             142.33,152.00 143.96,173.00 143.96,173.00
             144.04,175.71 142.62,186.76 137.61,183.83
             135.10,182.36 137.71,178.26 136.32,172.00
             134.14,162.15 126.18,151.09 126.00,136.00
             125.90,127.34 125.68,109.33 120.99,102.09
             118.96,98.94 114.08,95.67 111.00,93.37
             106.39,89.93 99.19,84.65 94.00,82.46
             94.00,82.46 72.00,75.55 72.00,75.55
             72.00,75.55 45.00,61.26 45.00,61.26
             36.05,56.97 28.07,57.03 15.00,48.45
             12.53,46.83 6.48,42.18 9.07,38.61
             10.21,37.04 12.41,37.43 14.00,37.86
             8.37,36.34 38.19,45.56 31.00,42.73
             35.73,44.59 38.42,49.44 43.00,51.69
             43.00,51.69 71.00,57.44 71.00,57.44
             80.65,60.36 83.86,64.93 95.00,68.28
             95.00,68.28 110.00,72.34 110.00,72.34
             114.37,73.85 121.65,76.97 126.00,77.49
             128.71,77.82 132.92,77.25 132.82,73.67
             132.77,71.66 130.21,67.07 129.34,65.00
             125.74,56.55 124.56,38.82 138.00,39.14
             147.32,39.35 153.00,48.64 154.18,57.00
             154.18,57.00 154.18,64.00 154.18,64.00
             155.51,77.30 166.01,69.69 173.00,69.11
             181.28,68.41 184.22,73.52 191.00,72.63
             194.82,72.14 198.62,69.56 202.00,67.78
             202.00,67.78 220.00,59.28 220.00,59.28
             220.00,59.28 243.00,51.18 243.00,51.18
             249.80,47.87 252.64,43.86 261.00,40.45
             270.56,36.56 277.67,36.66 287.00,29.47
             294.64,23.58 300.00,15.52 307.00,9.06
             309.09,7.13 312.60,3.98 315.40,6.62
             318.33,9.37 315.97,14.29 314.29,17.00
             308.81,25.82 301.30,29.41 293.00,34.69
             280.84,42.44 268.52,53.64 256.00,59.74
             244.04,65.57 223.17,71.20 215.45,82.01
             210.43,89.05 219.41,93.48 224.00,97.32
             229.38,101.82 234.35,107.81 241.00,110.52
             246.35,112.69 256.00,112.00 262.00,112.00 Z" />
</svg>
