<?xml version="1.0" encoding="utf-8"?>
<svg viewBox="220.36082458496094 375.9268493652344 320.80938720703125 187.07064819335938" width="320.80938720703125" height="187.07064819335938" xmlns="http://www.w3.org/2000/svg"><g fill="none" stroke="rgb(254, 240, 138)" stroke-width="1" transform="matrix(0.6311416625976562, 0, 0, 0.6311416625976562, -326.90203857421875, -41.131553649902344)"><path d="M1371.4,667.8c-4-7-10.1-5.9-15.9,0c-5.9,5.9-19.9,24.1-33.8,36.4c-13.8,12.2-39,15.2-50.4,21.3&#10;&#9;&#9;c-11.4,6.1-12.8,13.3-22.4,15.4c-19.1,4.2-46,13.8-83.7,36.4c-17.2-17.2-29.7-11.2-34.1-8c-4.4,3.2-7.9,7.1-13.1,5.9&#10;&#9;&#9;c-5.2-1.1-5.4-10.1-5.4-14.9c4.9-2.3,3.8-14.9-0.5-15.6c-4.4-26.6-25.6-27.5-32.5-25.5c-22.3,6.5-14.1,34.6-12.3,40.9&#10;&#9;&#9;c-2.3,2.3,3.8,12.9,7,11.7c1.2,3.1,7.3,9.4,8.7,10.8c1.4,1.4,2.6,5.4-2.1,4c-6.4-1.9-32-10.8-40.8-14.9c-8.7-4-24-1.2-39.5-13.1&#10;&#9;&#9;c-15.6-11.9-43-13.8-49.5-15.2c-6.5-1.4-17,2.3-23.1-9.3c-6.1-11.5-10.5-11.2-18.2-9.3c-7.7,1.9-14.2-5.9-25-10.1&#10;&#9;&#9;c-10.8-4.2-17.7,0.9-8.4,14.7c9.3,13.8,27.6,17.3,33.6,21.2c5.9,3.8,7.3,4.7,13.6,4.7c6.3,0,29.2,14.2,46.2,23.4&#10;&#9;&#9;c17,9.3,38,10.5,51.3,18.4c13.3,7.9,25.9,20.5,38.8,26.2c-2.6,5.6,1.6,18.5,4,28.7c2.4,10.1-1,25,1.4,39.4&#10;&#9;&#9;c2.5,14.3,17,43.9,18.2,49c1.2,5.1-3.7,8-7.5,8c-3.8,0-10.8,1.6-14.2,1.6c-3.3,0-11,2.1-5.9,3.7c5.1,1.6,13.6,1.1,21.9,1.1&#10;&#9;&#9;c8.2,0,4.5,2.4,8.2,2.4c3.7,0,6.1-2.6,6.1-2.6c6.6,0,5.8-4.5,5.8-10c0-5.4-2.5-33.6-2.5-42.3c0-8.7-8.2-19.9-8.2-28.2&#10;&#9;&#9;s0.7-16.6,0.7-24.5c2.3,0,6.6,3.7,26.4,2.8c19.8-0.9,44.2-7.6,51.4-14.9c5.5-5.5,8.9-15.1,13.6-21.7c12.8,4.6,25.6,19.8,38.4,22.4&#10;&#9;&#9;c13.9,2.9,28.8,9.8,40.8,15.3c12,5.5,21.4-3.7,25.1-7.4c3.7-3.7,17.1-5.9,17.6-8.1c0.5-2.2-0.8-2.4-2.9-4.5&#10;&#9;&#9;c-2.1-2.1-21.4,1.6-34.7,2.7c-13.2,1.1-20.5-4.9-33.7-18.2c-11.2-11.2-22.3-15.6-30.1-18.9c9.6-7.2,20.7-15.7,26.3-19.9&#10;&#9;&#9;c9.4-7,44.5-16.8,62.7-29.6c18.2-12.8,42-31.7,51.3-35.7c9.3-4,15.2-10.5,22.6-17.8C1370,689.2,1375.4,674.8,1371.4,667.8z" transform="matrix(1, 0, 0, 1, 1.9326762412674725e-12, 4.547473508864641e-13)"/></g></svg>